<svg width="1500" height="500" viewBox="0 0 1500 500" fill="none" xmlns="http://www.w3.org/2000/svg">
<path d="M2.74441 60.116H68.6595L183.913 224.865V60.116H249.828V338.891H183.913L68.6595 174.142V338.891H2.74441V60.116Z" fill="#FAFBFF"/>
<path d="M412.585 338.891L375.197 282.895L337.427 338.891H269.199L341.279 232.172L269.199 129.107H338.584L376.354 180.231L414.123 129.107H482.352L410.271 230.954L482.352 338.891H412.585Z" fill="#FAFBFF"/>
<path d="M599.87 338.891H572.635C542.828 338.891 523.752 315.764 523.752 276.404V183.885H465.824L504.873 129.107H523.752V71.4914H586.197V129.107H652.641L627.437 183.885H586.197V263.824C586.197 281.833 591.255 286.549 604.312 286.549C612.41 286.549 648.949 286.898 654.216 286.898L599.857 338.891H599.87Z" fill="#FAFBFF"/>
<path d="M846.99 179.013H909.434V295.475C882.458 325.909 841.981 343.762 801.122 343.762C722.876 343.762 657.355 277.622 657.355 199.303C657.355 120.983 722.876 55.2445 801.122 55.2445C841.981 55.2445 882.458 73.0979 909.434 103.13L861.253 148.178C846.99 129.508 823.865 118.146 801.122 118.146C759.882 118.146 724.808 155.472 724.808 199.303C724.808 243.133 759.882 280.861 801.122 280.861C816.543 280.861 832.345 275.588 845.451 266.259V231.356H790.932L846.99 179.013Z" fill="#FAFBFF"/>
<path d="M1081.08 270.315L1119.62 311.295C1101.89 330.366 1067.59 343.762 1037.9 343.762C976.235 343.762 930.75 297.911 930.75 233.39C930.75 168.869 974.697 124.235 1034.82 124.235C1098.04 124.235 1135.03 172.924 1135.03 252.863H992.8C998.966 273.968 1014.77 288.168 1035.97 288.168C1051.39 288.168 1069.13 281.275 1081.08 270.315ZM993.576 211.067H1074.52C1069.13 191.995 1055.63 179.415 1035.97 179.415C1016.32 179.415 1000.52 191.594 993.576 211.067Z" fill="#FAFBFF"/>
<path d="M1353.72 205.392V280.369L1291.28 338.891V220.81C1291.28 197.683 1277.39 181.449 1257.36 181.449C1237.32 181.449 1222.29 197.269 1222.29 217.972L1221.9 216.754V338.891H1156.76V129.107H1221.9V153.05C1234.24 135.196 1255.44 124.235 1280.5 124.235C1323.29 124.235 1353.73 157.921 1353.73 205.392H1353.72Z" fill="#FAFBFF"/>
<path d="M1500 101.329L1443.91 153.995V59.0536H1353.72L1416.77 0H1500V101.329Z" fill="#FAFBFF"/>
<path d="M0 463.502C0 446.206 15.605 431.682 33.9544 431.682C43.2707 431.682 51.8362 435.362 58.0142 441.36L51.2578 447.462C46.8765 442.98 40.6985 440.026 33.9421 440.026C20.9092 440.026 9.88235 450.779 9.88235 463.515C9.88235 476.251 20.9092 487.095 33.9421 487.095C40.6985 487.095 46.8765 484.141 51.2578 479.658L58.0142 485.748C51.8362 491.668 43.2707 495.426 33.9544 495.426C15.5927 495.426 0 480.811 0 463.515V463.502Z" fill="#FAFBFF"/>
<path d="M125.443 485.916V494.337H81.114V432.757H90.8118V485.916H125.443Z" fill="#FAFBFF"/>
<path d="M147.226 463.502C147.226 446.206 162.819 431.682 181.18 431.682C199.542 431.682 214.95 446.206 214.95 463.502C214.95 480.798 199.542 495.413 181.18 495.413C162.819 495.413 147.226 480.798 147.226 463.502ZM205.142 463.502C205.142 450.779 194.201 440.013 181.168 440.013C168.135 440.013 157.108 450.766 157.108 463.502C157.108 476.238 168.135 487.082 181.168 487.082C194.201 487.082 205.142 476.329 205.142 463.502Z" fill="#FAFBFF"/>
<path d="M241.471 468.438V432.757H251.083V468.257C251.083 479.282 258.689 487.173 269.531 487.173C280.373 487.173 287.893 479.282 287.893 468.257V432.757H297.59V468.438C297.59 484.219 285.887 495.413 269.531 495.413C253.175 495.413 241.471 484.206 241.471 468.438Z" fill="#FAFBFF"/>
<path d="M327.644 432.757H350.189C371.308 432.757 386.335 445.48 386.335 463.502C386.335 481.524 371.308 494.337 350.189 494.337H327.644V432.757ZM350.756 486.097C365.881 486.097 376.44 476.782 376.44 463.515C376.44 450.248 365.881 441.01 350.756 441.01H337.255V486.097H350.756Z" fill="#FAFBFF"/>
<path d="M472.864 441.192H451.462V432.77H503.963V441.192H482.463V494.35H472.851V441.192H472.864Z" fill="#FAFBFF"/>
<path d="M538.865 458.76H573.484V467.182H538.865V485.916H577.2V494.337H529.167V432.757H577.2V441.179H538.865V458.76Z" fill="#FAFBFF"/>
<path d="M600.965 463.502C600.965 446.206 616.57 431.682 634.919 431.682C644.235 431.682 652.801 435.362 658.979 441.36L652.223 447.462C647.841 442.98 641.663 440.026 634.907 440.026C621.874 440.026 610.847 450.779 610.847 463.515C610.847 476.251 621.874 487.095 634.907 487.095C641.663 487.095 647.841 484.141 652.223 479.658L658.979 485.748C652.801 491.668 644.235 495.426 634.919 495.426C616.557 495.426 600.965 480.811 600.965 463.515V463.502Z" fill="#FAFBFF"/>
<path d="M737.829 432.757V494.337H728.217V467.182H692.552V494.337H682.94V432.757H692.552V458.747H728.217V432.757H737.829Z" fill="#FAFBFF"/>
<path d="M767.5 432.757H777.112L814.684 479.451V432.757H824.296V494.337H814.684L777.112 447.644V494.337H767.5V432.757Z" fill="#FAFBFF"/>
<path d="M851.383 463.502C851.383 446.206 866.976 431.682 885.338 431.682C903.699 431.682 919.108 446.206 919.108 463.502C919.108 480.798 903.699 495.413 885.338 495.413C866.976 495.413 851.383 480.798 851.383 463.502ZM909.311 463.502C909.311 450.779 898.371 440.013 885.338 440.013C872.305 440.013 861.278 450.766 861.278 463.502C861.278 476.238 872.317 487.082 885.338 487.082C898.358 487.082 909.311 476.329 909.311 463.502Z" fill="#FAFBFF"/>
<path d="M988.629 485.916V494.337H944.299V432.757H953.997V485.916H988.629Z" fill="#FAFBFF"/>
<path d="M1010.4 463.502C1010.4 446.206 1025.99 431.682 1044.35 431.682C1062.72 431.682 1078.12 446.206 1078.12 463.502C1078.12 480.798 1062.72 495.413 1044.35 495.413C1025.99 495.413 1010.4 480.798 1010.4 463.502ZM1068.33 463.502C1068.33 450.779 1057.39 440.013 1044.35 440.013C1031.32 440.013 1020.29 450.766 1020.29 463.502C1020.29 476.238 1031.33 487.082 1044.35 487.082C1057.37 487.082 1068.33 476.329 1068.33 463.502Z" fill="#FAFBFF"/>
<path d="M1134.32 461.17H1161.33V485.735C1155.15 491.656 1144.88 495.413 1135.65 495.413C1117.28 495.413 1101.59 480.798 1101.59 463.502C1101.59 446.206 1117.28 431.682 1135.65 431.682C1144.88 431.682 1155.14 435.362 1161.33 441.36L1154.57 447.462C1150.11 442.889 1142.4 440.026 1135.65 440.026C1122.51 440.026 1111.49 450.779 1111.49 463.515C1111.49 476.251 1122.53 487.095 1135.65 487.095C1141.16 487.095 1147.35 485.216 1151.82 481.99V469.086H1134.32V461.17Z" fill="#FAFBFF"/>
<path d="M1189.29 432.757H1198.9V494.337H1189.29V432.757Z" fill="#FAFBFF"/>
<path d="M1237.23 458.76H1271.84V467.182H1237.23V485.916H1275.56V494.337H1227.53V432.757H1275.56V441.179H1237.23V458.76Z" fill="#FAFBFF"/>
<path d="M1298.38 485.463L1304.17 478.738C1309.97 483.934 1316.83 487.341 1325.67 487.341C1334.52 487.341 1339.37 482.858 1339.37 477.935C1339.37 472.105 1333.94 469.863 1323.02 467.531C1309.7 464.577 1300.85 460.807 1300.85 449.691C1300.85 439.378 1310.36 431.578 1323.48 431.578C1333.56 431.578 1341.08 435.076 1347.36 440.272L1341.85 447.087C1336.33 442.332 1329.76 439.559 1323.1 439.559C1315.78 439.559 1310.65 443.951 1310.65 448.888C1310.65 454.627 1316.26 456.597 1327 459.019C1340.04 461.883 1349.07 466.016 1349.07 477.041C1349.07 487.445 1340.7 495.322 1325.29 495.322C1314.35 495.322 1305.32 491.733 1298.38 485.463Z" fill="#FAFBFF"/>
</svg>
